<svg xmlns="http://www.w3.org/2000/svg" viewBox="0 0 519.64 533.87"><defs><style>.cls-1,.cls-11{fill:#ed2224;}.cls-1,.cls-4{stroke:#0f52a0;}.cls-1{stroke-width:5.65px;}.cls-10,.cls-12,.cls-2,.cls-3,.cls-6{fill:none;}.cls-2,.cls-3{stroke:#1b529e;}.cls-16,.cls-17,.cls-2,.cls-3,.cls-5{stroke-miterlimit:10;}.cls-3{stroke-width:4px;}.cls-13,.cls-16,.cls-17,.cls-4,.cls-5{fill:#fff;}.cls-12,.cls-4{stroke-width:4.24px;}.cls-16,.cls-17,.cls-5{stroke:#231f20;}.cls-5{stroke-width:2px;}.cls-7{fill:#306fa5;}.cls-8{fill:#0f52a0;}.cls-9{fill:#333;}.cls-10,.cls-12,.cls-14,.cls-15{stroke:#000;}.cls-10,.cls-12{stroke-miterlimit:1;}.cls-10,.cls-14,.cls-15{stroke-width:2.83px;}.cls-14{fill:#cb2027;}.cls-15{fill:#f9c627;}.cls-16{stroke-width:0.5px;}</style></defs><g id="Layer_2" data-name="Layer 2"><g id="Layer_1-2" data-name="Layer 1"><path class="cls-1" d="M500.82,253.83c0,129.94-105.33,235.28-235.27,235.28S30.28,383.77,30.28,253.83,135.61,18.55,265.55,18.55,500.82,123.89,500.82,253.83Z"/><path class="cls-2" d="M13.72,253.83c0,138.86,113,251.83,251.83,251.83s251.83-113,251.83-251.83S404.4,2,265.55,2,13.72,115,13.72,253.83Z"/><path class="cls-3" d="M14,253.83c0,138.86,113,251.83,251.83,251.83s251.83-113,251.83-251.83S404.66,2,265.81,2,14,115,14,253.83Z"/><path class="cls-1" d="M500.82,253.83c0,129.94-105.33,235.28-235.27,235.28S30.28,383.77,30.28,253.83,135.61,18.55,265.55,18.55,500.82,123.89,500.82,253.83Z"/><path class="cls-4" d="M442,253.83A176.45,176.45,0,1,1,265.55,77.37,176.45,176.45,0,0,1,442,253.83Z"/><path class="cls-5" d="M73.71,299a20.83,20.83,0,0,1,3.14,6.33c1.41,4.67,1.3,8.87-.32,12.57a12.92,12.92,0,0,1-8.59,7.41A13.15,13.15,0,0,1,56.81,324a16.72,16.72,0,0,1-7.21-9.89,21.24,21.24,0,0,1-.82-7.53l5.38.55a14.41,14.41,0,0,0,.55,3.95,8.77,8.77,0,0,0,4.08,5.47,8.33,8.33,0,0,0,6.67.49,8.32,8.32,0,0,0,5.08-3.83A8.81,8.81,0,0,0,71,306,16.22,16.22,0,0,0,69.18,302Z"/><path class="cls-5" d="M55.93,270.26a14.47,14.47,0,0,1,10.66,2.28,14.24,14.24,0,0,1,2.83,19.93,14.35,14.35,0,0,1-9.57,5.16,13.66,13.66,0,0,1-16.1-12.13,12.68,12.68,0,0,1,2.68-10A14.18,14.18,0,0,1,55.93,270.26Zm1.45,8.65q-8.54,1.2-7.83,6.26T58.68,289c5.61-.79,8.19-2.85,7.72-6.21S62.92,278.13,57.38,278.91Z"/><path class="cls-5" d="M69.86,244.5l0,18.59L42.15,263l0-8.32,22.41.05,0-10.26Z"/><path class="cls-5" d="M60,212.91a14.43,14.43,0,0,1,9.59,5.16A14.24,14.24,0,0,1,66.72,238,14.31,14.31,0,0,1,56.1,240.3,13.66,13.66,0,0,1,44,224.16a12.63,12.63,0,0,1,5.37-8.9A14.08,14.08,0,0,1,60,212.91Zm-1,8.67q-8.55-1.23-9.28,3.86t7.71,6.21q8.43,1.23,9.16-3.82T59,221.58Z"/><path class="cls-5" d="M81.77,186.84l-1.71,8.65-12.18,1.14-.63,2.05,10.33,3.19-2.45,8L48.72,201.7l3.18-10.35c.6-2,1.09-3.34,1.45-4.18a9.7,9.7,0,0,1,2.57-3.49,7.09,7.09,0,0,1,6.95-1.11q4.8,1.47,5.78,7.15ZM61,190.26a3.25,3.25,0,0,0-3.21.38,7,7,0,0,0-1.54,3.05l-.46,1.48,7.14,2.2.43-1.41a5.34,5.34,0,0,0,.12-3.81A3.82,3.82,0,0,0,61,190.26Z"/><path class="cls-5" d="M95,159.75l-3.84,8-6.92-.89-3.73,7.8,4.81,5.3-2.83,5.89-20-22.19,3-6.35Zm-15.25,6.42-9-1.23,6.44,6.58Z"/><path class="cls-5" d="M99.74,127q6.54,4.52,6.39,11.75-.1,4.76-4,10.49l-5.26,7.63L74,141.22,79,134a40.26,40.26,0,0,1,4-5.11,13.49,13.49,0,0,1,8.17-4.23A12.53,12.53,0,0,1,99.74,127Zm-4.85,7.32q-4-2.81-7.4-1.43a8.57,8.57,0,0,0-3.59,3.25l-.81,1.18,14.11,9.72.73-1.05c1.43-2.08,2-3.95,1.67-5.63C99.17,138.24,97.61,136.22,94.89,134.36Z"/><path class="cls-5" d="M123.43,102.5a14.41,14.41,0,0,1,4.77,9.79,14.26,14.26,0,0,1-13.95,14.54,14.26,14.26,0,0,1-10-4.34,13.66,13.66,0,0,1-.38-20.16,12.65,12.65,0,0,1,9.56-4.09A14.16,14.16,0,0,1,123.43,102.5Zm-5.9,6.47q-6.23-6-9.79-2.29t2.61,9.57q6.15,5.91,9.69,2.23T117.53,109Z"/><path class="cls-5" d="M152.69,97.53l-6.73,4.9L129.69,80.07l6.72-4.9Z"/><path class="cls-5" d="M184.81,78.84l-7,3.78-6.63-12.26c-.49-.91-1.32-2.54-2.48-4.91q.62,2.46,1.11,5.64l2.36,14.58-3.12,1.69-11-9.9c-1.18-1.07-2.55-2.42-4.13-4,1,1.63,1.93,3.23,2.77,4.78l6.63,12.27-5.78,3.12L144.38,69.27l8.73-4.71,13.2,12.11-3.08-17.59,8.44-4.56Z"/><path class="cls-5" d="M220.1,67l-7.61,2.41-4.21-13.29q-.47-1.47-1.49-5.29c.09,1.69.1,3.6,0,5.75l-.41,14.76L203,72.43l-9-11.78c-1-1.28-2.06-2.86-3.3-4.76.67,1.8,1.28,3.55,1.81,5.23l4.21,13.29-6.25,2L182.19,50l9.45-3,10.69,14.38.27-17.85,9.15-2.9Z"/><path class="cls-5" d="M234.66,64.78l-8.23,1.45L221.65,39l8.23-1.45Z"/><path class="cls-5" d="M265.21,61.29a31.32,31.32,0,0,1-8.62,1.9,17.61,17.61,0,0,1-12.24-3.43A13.29,13.29,0,0,1,239,49.56a12.68,12.68,0,0,1,4-10.33q4.35-4.17,11.53-4.6a18.91,18.91,0,0,1,7.2,1l-1.82,5a12.16,12.16,0,0,0-3.81-.36,8.81,8.81,0,0,0-6.3,2.75,8.45,8.45,0,0,0-2.06,6.43,9,9,0,0,0,2.43,5.92,6.43,6.43,0,0,0,5.23,2.13,5.6,5.6,0,0,0,1.27-.23l-.43-7.2,8.31-.49Z"/><path class="cls-5" d="M294.55,64.16l-8.81.1-3.61-11.65L280,52.42l-1,10.75-8.32-.76,2.52-27.52,10.79,1c2,.19,3.49.38,4.38.56a9.84,9.84,0,0,1,3.95,1.79,7.08,7.08,0,0,1,2.52,6.57q-.46,5-5.81,7.13ZM287,44.59a3.2,3.2,0,0,0-1-3.07,6.74,6.74,0,0,0-3.3-.89l-1.54-.15L280.39,48l1.46.14a5.39,5.39,0,0,0,3.76-.67A3.81,3.81,0,0,0,287,44.59Z"/><path class="cls-5" d="M323.79,71.53l-8.63-2.1-.56-7-8.39-2L302,66.22l-6.35-1.54,17.57-24.17,6.85,1.67ZM314.35,58l-.65-9.09-5.11,7.68Z"/><path class="cls-5" d="M349.55,82.11l-4.89-2L339,60.79l-6,14.45-6-2.52,10.62-25.53L343,49.42l5.28,18.84,5.89-14.19,6.05,2.52Z"/><path class="cls-5" d="M385.11,77l-7-4.16L366.65,92.07l-7.16-4.28L371,68.56l-6.89-4.11,2.69-4.5,21,12.54Z"/><path class="cls-5" d="M404,122l-6.58-6,2.83-6.4-6.41-5.79-6.46,3.12-4.85-4.38,27-12.93,5.23,4.73Zm-1.82-16.44L406,97.22l-8.14,4.32Z"/><path class="cls-5" d="M423.31,133.22a7.07,7.07,0,0,1-6.44,1.54,12.46,12.46,0,0,1-6.73-4.51,15.41,15.41,0,0,1-3.69-8.39l5.15-1a7.75,7.75,0,0,0,1.74,5.13,4.18,4.18,0,0,0,2.19,1.44,2.31,2.31,0,0,0,2.14-.45,3.75,3.75,0,0,0,1.15-2.26q.17-1,.27-4.23c0-1.29.06-3,.13-5a7.1,7.1,0,0,1,2.43-4.73,6.14,6.14,0,0,1,5.75-1.3,11.77,11.77,0,0,1,6.1,4.18,15.54,15.54,0,0,1,3.32,6.83l-4.76,1.09a9.4,9.4,0,0,0-1.67-3.55q-1.71-2-3-.91a2.12,2.12,0,0,0-.68,1.28,20.64,20.64,0,0,0-.16,3.24,56.35,56.35,0,0,1-.33,5.74A8.67,8.67,0,0,1,423.31,133.22Z"/><path class="cls-5" d="M436.57,153a7.11,7.11,0,0,1-6.59.75,12.5,12.5,0,0,1-6.13-5.29,15.45,15.45,0,0,1-2.66-8.76l5.22-.37a7.72,7.72,0,0,0,1.1,5.31,4.14,4.14,0,0,0,2,1.69,2.32,2.32,0,0,0,2.19-.19,3.9,3.9,0,0,0,1.41-2.11,41,41,0,0,0,.77-4.16c.17-1.28.42-2.95.75-5a7.11,7.11,0,0,1,3-4.42,6.21,6.21,0,0,1,5.88-.6A11.85,11.85,0,0,1,449,134.7a15.61,15.61,0,0,1,2.47,7.18l-4.86.51a9.14,9.14,0,0,0-1.19-3.73c-.95-1.46-1.92-1.87-2.88-1.24a2.12,2.12,0,0,0-.84,1.18,19.67,19.67,0,0,0-.56,3.19,53,53,0,0,1-1,5.65A8.66,8.66,0,0,1,436.57,153Z"/><path class="cls-5" d="M436.4,169.26l-3.84-7.39,24.53-12.74,3.84,7.39Z"/><path class="cls-5" d="M452.88,188.57a7.07,7.07,0,0,1-6.58-.63,12.5,12.5,0,0,1-4.92-6.45,15.48,15.48,0,0,1-.79-9.13l5.18.72a7.79,7.79,0,0,0,0,5.41,4.23,4.23,0,0,0,1.6,2.07,2.29,2.29,0,0,0,2.18.26,3.73,3.73,0,0,0,1.81-1.77c.32-.61.86-1.92,1.61-3.91.42-1.23,1-2.81,1.75-4.75a7.06,7.06,0,0,1,3.8-3.7,6.19,6.19,0,0,1,5.88.63,11.92,11.92,0,0,1,4.41,5.94,15.54,15.54,0,0,1,.94,7.54l-4.85-.52a9.35,9.35,0,0,0-.45-3.89c-.63-1.64-1.49-2.26-2.57-1.83a2.13,2.13,0,0,0-1,1,19.77,19.77,0,0,0-1.2,3,51.81,51.81,0,0,1-2.15,5.34A8.58,8.58,0,0,1,452.88,188.57Z"/><path class="cls-5" d="M474.62,211.37l-2.09-7.91-21.68,5.72-2.12-8.05,21.68-5.72-2-7.71,5.07-1.34L479.68,210Z"/><path class="cls-5" d="M456.47,246.12l-1-8.83,6.36-2.93-1-8.58-6.92-1.93-.75-6.48,28.76,8.09.82,7ZM466,232.55l8.26-3.76-8.94-2.13Z"/><path class="cls-5" d="M455.36,274l.23-5.27,16.17-11.9-15.62-.69.28-6.58,27.62,1.2-.25,5.8L467.92,268l15.35.66L483,275.2Z"/><path class="cls-5" d="M472.38,305.62l1.53-8-22-4.21,1.57-8.19,22,4.22,1.51-7.85,5.15,1-4.6,24Z"/><path class="cls-5" d="M451.17,323.76a7.12,7.12,0,0,1-4.73-4.65,12.49,12.49,0,0,1,.25-8.09,15.48,15.48,0,0,1,5.16-7.58l3.58,3.84a7.77,7.77,0,0,0-3.43,4.21,4.13,4.13,0,0,0-.05,2.62,2.31,2.31,0,0,0,1.52,1.59,3.74,3.74,0,0,0,2.52-.23,41.22,41.22,0,0,0,3.73-2c1.1-.67,2.56-1.53,4.36-2.56a7.13,7.13,0,0,1,5.3-.46,6.2,6.2,0,0,1,4.16,4.19,11.81,11.81,0,0,1-.31,7.38,15.52,15.52,0,0,1-4,6.43L465.74,325a9.36,9.36,0,0,0,2.13-3.28q.79-2.51-.84-3a2.16,2.16,0,0,0-1.45.09,21.46,21.46,0,0,0-2.84,1.57,51.45,51.45,0,0,1-5,2.76A8.66,8.66,0,0,1,451.17,323.76Z"/><rect class="cls-6" y="433.59" width="517.13" height="100.28"/><line class="cls-6" x1="113.04" y1="533.87" x2="51.02" y2="507.35"/><polygon class="cls-7" points="0 533.87 113.04 533.87 97.95 527.42 51.02 507.35 51.02 470.18 51.02 464.1 0 464.1 6 470.18 35.97 500.5 6.31 527.42 0 533.87"/><polygon class="cls-8" points="51.02 433.59 51.02 441.06 51.02 499.3 51.02 507.35 466.12 507.35 466.12 499.3 466.12 441.06 466.12 433.59 51.02 433.59"/><polygon class="cls-7" points="481.16 500.5 511.13 470.18 517.13 464.1 466.12 464.1 466.12 470.18 466.12 507.35 419.18 527.42 404.09 533.87 517.13 533.87 510.82 527.42 481.16 500.5"/><polygon class="cls-9" points="449.58 507.35 404.09 507.35 404.09 526.8 404.09 533.87 466.12 507.35 449.58 507.35"/><polygon class="cls-9" points="51.02 507.35 113.04 533.87 113.04 526.8 113.04 507.35 67.56 507.35 51.02 507.35"/><path class="cls-5" d="M96.69,467.83a19.54,19.54,0,0,1-.86,6.75q-2.55,6.57-11.66,6.56c-4.94,0-8.44-1.5-10.53-4.52a9.6,9.6,0,0,1-1.59-4.39,44.31,44.31,0,0,1-.16-4.72V452.16h8.5v13.92c0,3.49.22,5.76.65,6.79a3.54,3.54,0,0,0,3.53,2.33,4.12,4.12,0,0,0,4.3-3.39,26.39,26.39,0,0,0,.44-5.94V452.16h7.38Z"/><path class="cls-5" d="M127.65,480.64h-5.42l-12.89-16.11v16.11h-6.7V452.16h5.94L121,468V452.16h6.7Z"/><path class="cls-5" d="M142.7,480.64h-8.5V452.16h8.5Z"/><path class="cls-5" d="M171.15,457.56h-8.34v23.08h-8.5V457.56h-8.17v-5.4h25Z"/><path class="cls-5" d="M193.56,480.64h-19V452.16h17.32v5.4H183v5.49h8.62v5.44H183v6.75h10.53Z"/><path class="cls-5" d="M225.37,465.66q0,8.19-6.19,12.29-4.06,2.69-11.18,2.69h-9.48V452.16h9a40.3,40.3,0,0,1,6.59.37,13.74,13.74,0,0,1,8.3,4.45A12.9,12.9,0,0,1,225.37,465.66Zm-9,.17q0-5.08-3.09-7.13a8.68,8.68,0,0,0-4.82-1.14H207v17.68h1.3c2.58,0,4.48-.62,5.71-1.88C215.62,471.73,216.4,469.22,216.4,465.83Z"/><path class="cls-5" d="M281,452.58l-7.76,28.06H265l-5.45-17.53-5.85,17.53h-8.17l-7.12-28,8.7-.82L251,472l6.46-19.82h6.3L269.51,472l4.35-20.2Z"/><path class="cls-5" d="M303.39,480.64h-19V452.16h17.32v5.4h-8.82v5.49h8.61v5.44h-8.61v6.75h10.53Z"/><path class="cls-5" d="M337.18,472.72a7.28,7.28,0,0,1-3,6.1,12.71,12.71,0,0,1-7.95,2.32,15.74,15.74,0,0,1-9-2.65l2.6-4.72a7.83,7.83,0,0,0,5.17,2.05,4.21,4.21,0,0,0,2.57-.77,2.39,2.39,0,0,0,1.06-2,4,4,0,0,0-1-2.41,42.63,42.63,0,0,0-3.14-3c-1-.86-2.29-2-3.87-3.45a7.4,7.4,0,0,1-2.11-5.05,6.38,6.38,0,0,1,2.77-5.41,12,12,0,0,1,7.27-2,15.94,15.94,0,0,1,7.53,1.9l-2.28,4.47a9.39,9.39,0,0,0-3.85-1.06c-1.79,0-2.68.6-2.68,1.8a2.18,2.18,0,0,0,.54,1.38,21.8,21.8,0,0,0,2.42,2.28,54.06,54.06,0,0,1,4.27,4.06A8.92,8.92,0,0,1,337.18,472.72Z"/><path class="cls-5" d="M364.45,457.56h-8.33v23.08h-8.51V457.56h-8.17v-5.4h25Z"/><path class="cls-5" d="M394.33,480.64h-9.06L383,473.81h-8.82l-2.76,6.83h-6.67l11.59-28.48h7.19Zm-12.64-11.31-2.85-8.9-3.21,8.9Z"/><path class="cls-5" d="M422.72,480.64h-5.41l-12.89-16.11v16.11h-6.7V452.16h5.93L416,468V452.16h6.7Z"/><path class="cls-5" d="M456.08,465.66q0,8.19-6.18,12.29-4.08,2.69-11.19,2.69h-9.48V452.16h9a40.38,40.38,0,0,1,6.59.37,13.74,13.74,0,0,1,8.3,4.45A12.9,12.9,0,0,1,456.08,465.66Zm-9,.17q0-5.08-3.09-7.13a8.7,8.7,0,0,0-4.82-1.14h-1.47v17.68H439c2.58,0,4.48-.62,5.71-1.88Q447.11,470.92,447.11,465.83Z"/><path class="cls-8" d="M356.33,251.41c.08-1.08.14-2.17.19-3.26l4.29-72.69c0-7.71-10.7-14.18-18.4-14.18H319.24C304.62,149.7,285.6,142.39,262,142.39c-27.75,0-48,7.38-62.4,18.89H181.7C174,161.28,160,167,160,174.67l7.42,73a137.34,137.34,0,0,0,2,16.92c7.92,42.42,41.42,124.2,92.51,124.2s83.51-82,92.51-124.2a98,98,0,0,0,1.77-12.09C356.29,252.17,356.32,251.79,356.33,251.41Z"/><path class="cls-10" d="M356.33,251.41c.08-1.08.14-2.17.19-3.26l4.29-72.69c0-7.71-10.7-14.18-18.4-14.18H319.24C304.62,149.7,285.6,142.39,262,142.39c-27.75,0-48,7.38-62.4,18.89H181.7C174,161.28,160,167,160,174.67l7.42,73a137.34,137.34,0,0,0,2,16.92c7.92,42.42,41.42,124.2,92.51,124.2s83.51-82,92.51-124.2a98,98,0,0,0,1.77-12.09C356.29,252.17,356.32,251.79,356.33,251.41Z"/><line class="cls-10" x1="165.13" y1="222.69" x2="358.42" y2="222.69"/><path class="cls-11" d="M357.35,221.35l-191.62,1c0,15.69,1.69,28.83,3.22,42.32,4.87,42.88,41.42,124.2,92.51,124.2s86.06-81.53,92.51-124.2C356.84,245.66,357.85,231.11,357.35,221.35Z"/><path class="cls-12" d="M357.35,221.35l-191.62,1c0,15.69,1.69,28.83,3.22,42.32,4.87,42.88,41.42,124.2,92.51,124.2s86.06-81.53,92.51-124.2C356.84,245.66,357.85,231.11,357.35,221.35Z"/><polygon class="cls-13" points="210.48 357.9 192.14 336.66 192.14 223.92 210.48 223.92 210.48 357.9"/><polygon class="cls-13" points="251.07 386.31 232.49 378.37 232.49 222.91 251.07 222.91 251.07 386.31"/><polygon class="cls-13" points="292.4 377.13 273.15 385.92 273.15 222.99 292.17 222.99 292.4 377.13"/><polygon class="cls-13" points="330.24 330.61 312.29 352.81 312.29 222.91 330.24 222.91 330.24 330.61"/><path class="cls-12" d="M357.35,221.35l-191.62,1c0,15.69,1.69,28.83,3.22,42.32,4.87,42.88,41.42,124.2,92.51,124.2s86.06-81.53,92.51-124.2C356.84,245.66,357.85,231.11,357.35,221.35Z"/><polygon class="cls-13" points="182 167.76 186.09 176.05 195.23 177.37 188.62 183.82 190.18 192.92 182 188.62 173.82 192.92 175.38 183.82 168.77 177.37 177.91 176.05 182 167.76"/><polygon class="cls-13" points="213.91 167.76 217.99 176.05 227.13 177.37 220.52 183.82 222.08 192.92 213.91 188.62 205.73 192.92 207.29 183.82 200.68 177.37 209.81 176.05 213.91 167.76"/><polygon class="cls-13" points="245.81 167.76 249.9 176.05 259.04 177.37 252.43 183.82 253.99 192.92 245.81 188.62 237.64 192.92 239.19 183.82 232.58 177.37 241.72 176.05 245.81 167.76"/><polygon class="cls-13" points="277.72 167.76 281.81 176.05 290.94 177.37 284.33 183.82 285.89 192.92 277.72 188.62 269.54 192.92 271.1 183.82 264.49 177.37 273.63 176.05 277.72 167.76"/><polygon class="cls-13" points="309.62 167.76 313.71 176.05 322.85 177.37 316.24 183.82 317.8 192.92 309.62 188.62 301.44 192.92 303 183.82 296.4 177.37 305.53 176.05 309.62 167.76"/><polygon class="cls-13" points="341.53 167.76 345.62 176.05 354.75 177.37 348.14 183.82 349.7 192.92 341.53 188.62 333.36 192.92 334.91 183.82 328.3 177.37 337.44 176.05 341.53 167.76"/><path class="cls-14" d="M290.48,279l26-8.89a54.93,54.93,0,1,0-.21,36.5l-25.81-9.13"/><path class="cls-15" d="M292,288.33a27.57,27.57,0,1,1-27.56-27.47A27.53,27.53,0,0,1,292,288.33Z"/><polygon class="cls-16" points="93.98 348.88 100.41 361.9 114.78 363.99 104.38 374.13 106.84 388.44 93.98 381.68 81.13 388.44 83.58 374.13 73.19 363.99 87.56 361.9 93.98 348.88"/><polygon class="cls-17" points="435.6 348.88 442.02 361.9 456.4 363.99 446 374.13 448.45 388.44 435.6 381.68 422.75 388.44 425.19 374.13 414.79 363.99 429.17 361.9 435.6 348.88"/></g></g></svg>